<svg width="83" height="83" viewBox="0 0 83 83" fill="none" xmlns="http://www.w3.org/2000/svg">
<path d="M41.4999 66.4C32.8541 66.4 25.2112 61.9733 20.75 55.3333C20.8537 48.4166 34.5833 44.6125 41.4999 44.6125C48.4166 44.6125 62.1462 48.4166 62.2499 55.3333C59.9636 58.7377 56.8752 61.5277 53.2568 63.4575C49.6383 65.3874 45.6008 66.3978 41.4999 66.4ZM41.4999 17.2917C44.2516 17.2917 46.8905 18.3847 48.8362 20.3304C50.7819 22.2761 51.8749 24.915 51.8749 27.6666C51.8749 30.4183 50.7819 33.0572 48.8362 35.0029C46.8905 36.9486 44.2516 38.0416 41.4999 38.0416C38.7483 38.0416 36.1094 36.9486 34.1637 35.0029C32.218 33.0572 31.1249 30.4183 31.1249 27.6666C31.1249 24.915 32.218 22.2761 34.1637 20.3304C36.1094 18.3847 38.7483 17.2917 41.4999 17.2917ZM41.4999 6.91666C36.9584 6.91666 32.4613 7.81118 28.2655 9.54915C24.0696 11.2871 20.2572 13.8345 17.0458 17.0459C10.5602 23.5315 6.91663 32.3279 6.91663 41.5C6.91663 50.672 10.5602 59.4684 17.0458 65.9541C20.2572 69.1654 24.0696 71.7128 28.2655 73.4508C32.4613 75.1888 36.9584 76.0833 41.4999 76.0833C50.672 76.0833 59.4684 72.4397 65.954 65.9541C72.4397 59.4684 76.0833 50.672 76.0833 41.5C76.0833 22.3754 60.5208 6.91666 41.4999 6.91666Z" fill="black"/>
</svg>
